<svg xmlns="http://www.w3.org/2000/svg" viewBox="0 0 511.8 511.9"><title>24</title><path d="M652.8,509H141V-2.9H652.8ZM387.2,198.4c9.5-14.1,19.1-26.8,26.9-40.5,16.8-29.6,23.9-61.2,15.7-95.1-2.3-9.3-6.1-18-12.9-25-8.9-9.3-19.7-9.8-29.2-1.2a51,51,0,0,0-8.9,10.7c-14.1,22.7-18.4,47.5-15.3,73.8.9,8,2.2,15.9,3.2,22.6-5-6.1-9.6-13.9-16.1-19.4-20.6-17.1-44.6-21.2-70-13.9s-42.2,21.4-46.1,48.2c-1.8,12.7-.2,24.7,10,34a19.3,19.3,0,0,0,21.8,3.4,18.4,18.4,0,0,0,10-18.1c-.7-8.9-4.9-14-13.8-16.8l-5.2-1.7c-5.1-1.5-8-5.3-6.5-10.1s4.3-11.6,8.1-16.1c8.3-9.7,19.8-13.5,32.3-15,29.8-3.4,48.4,13.1,47.7,43-.4,17.3-6.5,33.1-16.3,47-8.4,12-18,23.1-27.6,34.2-22.5,25.9-45.4,51.4-67.6,76.5v9h87c25.4,33.8,58.4,48.3,100.2,40.8,1.1,5,2.3,9.5,3.1,14.1,2.2,13.4,6,26.9,6,40.3.1,31-20,47.4-49.2,42-4.8-.9-9.3-2.7-13-7.3l7.4-.8c13.3-2,23.4-15.4,21.6-28.6-2.2-15.7-15.5-25.8-30.5-23.1s-23.4,16.8-20.5,32.1c4.3,22.1,23.6,37.2,47,36.5s42.8-16.5,46.4-39.5c2.3-14.4-.6-28.1-3.7-42-2-9-3.8-18.1-5.7-27.1,17.1-7.9,27.4-21.3,34.7-37.7h85.4V316.1c-5.1,0-9.7.2-14.3,0-9.4-.5-13.4-5-13.4-14.2q0-7.5,0-15c0-4.9,0-9.8,0-15.2h35.6V259H515.7V111.3h-9.8L412.6,241.4h-16Z" transform="translate(-141 2.9)" fill="rgba(0,0,0,0)"/><path d="M387.2,198.4l9.4,43h16l93.2-130.1h9.8V259h35.8v12.7H515.9c0,5.4,0,10.3,0,15.2s0,10,0,15c0,9.3,4.1,13.7,13.4,14.2,4.6.3,9.3,0,14.3,0v11.5H458.2c-7.3,16.5-17.6,29.8-34.7,37.7,1.9,9,3.7,18,5.7,27.1,3.1,13.8,6,27.6,3.7,42-3.6,23-21.9,38.9-46.4,39.5s-42.7-14.4-47-36.5c-3-15.3,6.1-29.5,20.5-32.1s28.2,7.4,30.5,23.1c1.9,13.2-8.3,26.6-21.6,28.6l-7.4.8c3.7,4.7,8.1,6.4,13,7.3,29.2,5.4,49.3-11,49.2-42,0-13.4-3.8-26.9-6-40.3-.8-4.6-1.9-9.1-3.1-14.1-41.8,7.5-74.7-7-100.2-40.8h-87v-9c22.2-25.1,45.1-50.6,67.6-76.5,9.6-11,19.2-22.2,27.6-34.2,9.8-13.9,16-29.7,16.3-47,.6-29.9-18-46.5-47.7-43-12.5,1.4-24,5.3-32.3,15-3.8,4.4-6.3,10.4-8.1,16.1s1.3,8.6,6.5,10.1l5.2,1.7c9,2.9,13.2,8,13.8,16.8a18.4,18.4,0,0,1-10,18.1,19.3,19.3,0,0,1-21.8-3.4c-10.2-9.3-11.9-21.3-10-34,3.9-26.8,21.7-41.3,46.1-48.2s49.4-3.2,70,13.9c6.6,5.5,11.2,13.3,16.1,19.4-1-6.7-2.3-14.6-3.2-22.6-3-26.3,1.2-51.1,15.3-73.8a51,51,0,0,1,8.9-10.7c9.5-8.6,20.3-8,29.2,1.2,6.8,7,10.6,15.7,12.9,25,8.2,33.9,1,65.5-15.7,95.1C406.4,171.6,396.7,184.3,387.2,198.4Zm102-45.2-64.5,90.5,22.4,15.1h42.1Zm-95,119.2c-11.6,3.1-19.2,9.4-22.7,19.7-6.5,19.6-3.3,36.5,16.2,48.3l-1.7,1.2L362,328.1H335.2c9.7,24.5,53.7,41.3,77,29.3ZM379,158.9c18.2-12.1,34.3-37,39.3-60.5,2.1-9.7,3-19.4-.1-29.1-2.1-6.6-5.9-9.2-12.1-6.2s-12.3,6.9-16.9,11.8c-10.9,11.9-14.9,26.8-15.6,42.7C372.9,131.6,375.3,145.3,379,158.9Zm-54.1,144c8.2.2,16.2,1.4,23.2-4.1,1.4-27,16.3-44.2,40.2-54.9L380,205.1l-38.2,41.6a84.4,84.4,0,0,0-6.9,8.5C324.8,269.6,321.9,285.5,324.9,302.9ZM421,354.1c18.6-8.2,28.6-33.8,22.1-55-5-16.4-24.3-29.4-39.7-26.5Zm40.7-38.1c6,0,11.2.4,16.2-.1,7.3-.7,11-4.7,11.5-12.1.4-5.5.2-11,.2-16.5s0-10.1,0-15.1H457.1C464.2,286.4,465.3,300.7,461.7,315.9ZM260.2,296.2c14.6,6.6,28.8,5.4,43.7,6.7-4.2-16.4-3-31.9.6-47.5C289.5,268.1,273.3,279.4,260.2,296.2Z" transform="translate(-141 2.9)"/><path d="M489.3,153.2V258.8H447.2l-22.4-15.1Z" transform="translate(-141 2.9)" fill="rgba(0,0,0,0)"/><path d="M394.3,272.4l18,85c-23.3,12-67.3-4.8-77-29.3H362l24.1,13.5,1.7-1.2c-19.4-11.8-22.7-28.8-16.2-48.3C375,281.8,382.7,275.4,394.3,272.4Z" transform="translate(-141 2.9)" fill="rgba(0,0,0,0)"/><path d="M379,158.9c-3.7-13.6-6-27.3-5.4-41.3.7-15.9,4.8-30.8,15.6-42.7,4.5-5,10.7-8.9,16.9-11.8s10-.4,12.1,6.2c3.1,9.7,2.1,19.4.1,29.1C413.2,121.9,397.2,146.8,379,158.9Z" transform="translate(-141 2.9)" fill="rgba(0,0,0,0)"/><path d="M324.9,302.9c-3-17.5-.1-33.3,10-47.7a84.4,84.4,0,0,1,6.9-8.5L380,205.1l8.3,38.8c-23.9,10.7-38.8,27.8-40.2,54.9C341.1,304.3,333.1,303.1,324.9,302.9Z" transform="translate(-141 2.9)" fill="rgba(0,0,0,0)"/><path d="M421,354.1l-17.7-81.6c15.4-2.9,34.7,10.1,39.7,26.5C449.6,320.3,439.6,345.9,421,354.1Z" transform="translate(-141 2.9)" fill="rgba(0,0,0,0)"/><path d="M461.7,315.9c3.6-15.2,2.5-29.5-4.6-43.7h32.6c0,4.9,0,10,0,15.1s.1,11-.2,16.5c-.5,7.3-4.2,11.3-11.5,12.1C472.8,316.4,467.7,315.9,461.7,315.9Z" transform="translate(-141 2.9)" fill="rgba(0,0,0,0)"/><path d="M260.2,296.2c13.1-16.8,29.3-28.1,44.4-40.8-3.6,15.6-4.9,31-.6,47.5C289.1,301.6,274.9,302.8,260.2,296.2Z" transform="translate(-141 2.9)" fill="rgba(0,0,0,0)"/></svg>